<svg width="1314" height="253" xmlns="http://www.w3.org/2000/svg" xmlns:xlink="http://www.w3.org/1999/xlink" xml:space="preserve" overflow="hidden"><g transform="translate(17 -37)"><path d="M34.3378 145.972C35.5124 85.2099 99.131 41.0702 169.381 35.1819 186.487 33.7538 215.428 33.3528 236.848 40.0581L216.581 77.4489C202.433 73.8493 185.731 72.8242 169.08 73.5546 97.4233 76.034 52.3279 118.078 51.322 160.588 50.7935 183.161 61.6922 204.9 83.3321 217.473L81.9191 218.68C50.5114 203.05 33.6984 178.458 34.3378 145.972Z" fill="#FFFFFF" transform="matrix(1.00164 0 0 1 -17 37)"/><path d="M67.6892 160.237C74.7952 124.755 114.314 97.6519 176.414 100.892 185.013 101.345 194.776 102.188 203.491 104.097L185.54 137.197C179.953 136.43 171.229 134.876 163.742 134.473 114.817 131.913 84.7147 152.155 79.7212 177.967 77.0404 191.826 82.723 207.313 96.9032 217.05L95.4813 218.142C71.1998 204.706 63.3353 181.928 67.6892 160.237Z" fill="#FFFFFF" transform="matrix(1.00164 0 0 1 -17 37)"/><path d="M97.0133 178.202C108.899 158.216 144.716 151.745 176.695 159.512L167.32 176.698C141.899 170.849 112.468 174.822 104.033 189.476 99.4473 197.451 102.004 208.411 107.184 216.146L106.235 217.102C94.2786 206.406 89.9288 190.126 97.0133 178.202Z" fill="#FFFFFF" transform="matrix(1.00164 0 0 1 -17 37)"/><path d="M306.236 199.234 305.45 185.743 311.119 185.743 310.52 199.234 306.236 199.234 306.236 199.234ZM314.761 199.234 314.161 185.743 319.789 185.743 319.024 199.234 314.761 199.234 314.761 199.234ZM359.361 185.744 359.361 191.207 352.264 191.207 352.264 215.643 346.119 215.643 346.119 191.207 338.981 191.207 338.981 185.744 359.361 185.744ZM394.277 215.642 386.497 202.483 384.697 202.483 384.697 215.642 378.49 215.642 378.49 185.744 389.332 185.744C396.098 185.744 398.953 189.737 398.953 194.683 398.953 198.697 396.677 201.304 392.622 202.173L401.622 215.643 394.277 215.643 394.277 215.642ZM384.697 190.895 384.697 198.033 388.36 198.033C391.67 198.033 393.015 196.626 393.015 194.475 393.015 192.343 391.67 190.895 388.36 190.895L384.697 190.895 384.697 190.895ZM440.616 215.642 438.443 209.476 425.884 209.476 423.711 215.642 417.359 215.642 428.367 185.744 435.961 185.744 446.969 215.642 440.616 215.642 440.616 215.642ZM427.704 204.283 436.622 204.283 432.173 191.599 427.704 204.283ZM486.313 185.744 492.497 185.744 492.497 215.642 485.32 215.642 472.075 194.268 472.075 215.642 465.89 215.642 465.89 185.744 472.988 185.744 486.313 206.993 486.313 185.744ZM524.6 216.056C518.186 216.056 513.178 212.973 512.269 207.366L518.683 205.897C519.095 209.248 521.559 210.987 524.849 210.987 527.374 210.987 529.379 209.869 529.36 207.345 529.337 204.531 526.029 203.641 522.389 202.524 517.999 201.158 513.304 199.544 513.304 194.04 513.304 188.474 517.854 185.33 523.855 185.33 529.112 185.33 534.406 187.461 535.61 193.192L529.609 194.682C529.051 191.702 527.041 190.398 524.23 190.398 521.723 190.398 519.592 191.433 519.592 193.895 519.592 196.192 522.529 196.958 525.926 197.972 530.438 199.337 535.774 201.075 535.774 207.034 535.774 213.386 530.457 216.055 524.6 216.055L524.6 216.056ZM573.565 191.206 562.185 191.206 562.185 197.993 572.014 197.993 572.014 203.393 562.185 203.393 562.185 215.643 555.935 215.643 555.935 185.745 573.565 185.745 573.565 191.207 573.565 191.206ZM606.539 216.056C597.745 216.056 591.247 210.056 591.247 200.682 591.247 191.289 597.745 185.33 606.539 185.33 615.31 185.33 621.808 191.289 621.808 200.682 621.808 210.056 615.31 216.056 606.539 216.056ZM606.539 210.366C611.688 210.366 615.643 206.745 615.643 200.682 615.643 194.641 611.688 191.04 606.539 191.04 601.386 191.04 597.431 194.641 597.431 200.682 597.431 206.745 601.386 210.366 606.539 210.366ZM657.739 215.642 649.957 202.483 648.158 202.483 648.158 215.642 641.95 215.642 641.95 185.744 652.792 185.744C659.557 185.744 662.415 189.737 662.415 194.683 662.415 198.697 660.138 201.304 656.081 202.173L665.081 215.643 657.739 215.643 657.739 215.642ZM648.158 190.895 648.158 198.033 651.822 198.033C655.129 198.033 656.474 196.626 656.474 194.475 656.474 192.343 655.129 190.895 651.822 190.895L648.158 190.895 648.158 190.895ZM718.333 215.642 712.143 215.642 710.18 193.109 702.604 215.642 698.594 215.642 691.018 193.109 689.031 215.642 682.824 215.642 685.33 185.744 694.185 185.744 700.557 204.511 707.013 185.744 715.868 185.744 718.333 215.642ZM739.261 215.642 739.261 185.744 745.469 185.744 745.469 215.642 739.261 215.642ZM788.039 185.744 794.228 185.744 794.228 215.642 787.045 215.642 773.805 194.268 773.805 215.642 767.621 215.642 767.621 185.744 774.714 185.744 788.039 206.993 788.039 185.744ZM829.329 216.056C820.699 216.056 814.351 210.097 814.351 200.765 814.351 191.309 820.844 185.33 829.638 185.33 835.411 185.33 840.194 187.875 842.799 192.364L837.36 195.261C835.786 192.199 832.97 190.73 829.638 190.73 824.466 190.73 820.577 194.289 820.577 200.62 820.577 206.724 824.218 210.655 829.868 210.655 833.696 210.655 837.214 208.752 838.062 204.386L829.887 204.386 829.887 199.4 843.938 199.4 843.938 215.642 839.056 215.642 839.056 211.504C837.13 214.339 833.902 216.056 829.329 216.056L829.329 216.056ZM907.586 185.744 907.586 191.207 900.488 191.207 900.488 215.643 894.341 215.643 894.341 191.207 887.205 191.207 887.205 185.744 907.586 185.744ZM944.051 191.206 932.961 191.206 932.961 197.993 942.79 197.993 942.79 203.393 932.961 203.393 932.961 210.16 944.051 210.16 944.051 215.643 926.711 215.643 926.711 185.745 944.051 185.745 944.051 191.207 944.051 191.206ZM980.665 215.642 972.883 202.483 971.084 202.483 971.084 215.642 964.876 215.642 964.876 185.744 975.718 185.744C982.483 185.744 985.341 189.737 985.341 194.683 985.341 198.697 983.064 201.304 979.007 202.173L988.012 215.643 980.665 215.643 980.665 215.642ZM971.084 190.895 971.084 198.033 974.748 198.033C978.056 198.033 979.4 196.626 979.4 194.475 979.4 192.343 978.056 190.895 974.748 190.895L971.084 190.895 971.084 190.895ZM1041.26 215.642 1035.07 215.642 1033.11 193.109 1025.54 215.642 1021.52 215.642 1013.94 193.109 1011.96 215.642 1005.75 215.642 1008.26 185.744 1017.11 185.744 1023.48 204.511 1029.94 185.744 1038.79 185.744 1041.26 215.642ZM1062.19 215.642 1062.19 185.744 1068.4 185.744 1068.4 215.642 1062.19 215.642ZM1110.97 185.744 1117.15 185.744 1117.15 215.642 1109.98 215.642 1096.73 194.268 1096.73 215.642 1090.55 215.642 1090.55 185.744 1097.64 185.744 1110.97 206.993 1110.97 185.744ZM1159.33 215.642 1157.16 209.476 1144.6 209.476 1142.43 215.642 1136.08 215.642 1147.08 185.744 1154.68 185.744 1165.69 215.642 1159.33 215.642 1159.33 215.642ZM1146.42 204.283 1155.34 204.283 1150.89 191.599 1146.42 204.283ZM1190.81 210.159 1200.19 210.159 1200.19 215.642 1184.61 215.642 1184.61 185.744 1190.81 185.744 1190.81 210.159 1190.81 210.159ZM1229.29 216.056C1222.88 216.056 1217.87 212.973 1216.96 207.366L1223.37 205.897C1223.78 209.248 1226.25 210.987 1229.54 210.987 1232.06 210.987 1234.07 209.869 1234.05 207.345 1234.03 204.531 1230.72 203.641 1227.08 202.524 1222.69 201.158 1217.99 199.544 1217.99 194.04 1217.99 188.474 1222.54 185.33 1228.54 185.33 1233.8 185.33 1239.1 187.461 1240.3 193.192L1234.3 194.682C1233.74 191.702 1231.73 190.398 1228.92 190.398 1226.41 190.398 1224.28 191.433 1224.28 193.895 1224.28 196.192 1227.22 196.958 1230.62 197.972 1235.12 199.337 1240.46 201.075 1240.46 207.034 1240.46 213.386 1235.15 216.055 1229.29 216.055L1229.29 216.056ZM1261.43 199.234 1260.65 185.743 1266.32 185.743 1265.72 199.234 1261.43 199.234ZM1269.96 199.234 1269.36 185.743 1274.98 185.743 1274.22 199.234 1269.96 199.234 1269.96 199.234Z" fill="#FFFFFF" transform="matrix(1.00164 0 0 1 -17 37)"/><path d="M405.084 100.232 405.084 128.796C405.084 129.424 404.832 130.179 404.203 130.682 394.892 140.874 381.68 147.038 366.581 147.038 338.899 147.038 315.746 124.768 315.746 96.0796 315.746 67.5163 338.898 44.6162 366.581 44.6162 381.806 44.6162 395.144 50.9078 404.58 61.2255 405.713 62.3579 405.587 63.6164 404.454 64.6228L394.01 73.0533C392.751 74.0601 391.62 73.9341 390.613 72.8017 385.203 67.1396 376.772 61.9817 366.706 61.9817 348.21 61.9817 333.741 77.9605 333.741 96.08 333.741 114.451 348.21 129.676 366.706 129.676 374.885 129.676 381.931 126.278 387.216 122L387.216 114.828 367.335 114.828C365.699 114.828 364.818 114.073 364.818 112.438L364.818 100.359C364.818 98.7234 365.448 97.717 367.083 97.717L402.567 97.717C404.203 97.717 405.083 98.5988 405.083 100.233L405.084 100.232ZM480.705 128.797C482.087 128.797 483.094 129.806 483.094 131.314L483.094 143.771C483.094 145.03 482.087 146.161 480.705 146.161L421.187 146.161C419.929 146.161 419.3 145.155 419.3 143.896L419.3 47.8915C419.3 46.6331 420.307 45.5006 421.691 45.5006L434.777 45.5006C436.161 45.5006 437.293 46.6331 437.293 47.8915L437.293 128.796 480.705 128.796 480.705 128.797Z" fill="#FFFFFF" transform="matrix(1.00164 0 0 1 -17 37)"/><path d="M630.036 45.2521C631.183 45.2521 631.694 45.761 631.694 46.9062L631.694 53.2677C631.694 54.2854 631.183 54.9216 630.04 54.9216L597.211 54.9216 597.211 145.255C597.211 146.4 596.705 147.035 595.688 147.035L590.596 147.035C588.309 147.035 587.161 145.636 587.161 143.474L587.161 54.9193 554.337 54.9193C553.194 54.9193 552.557 54.283 552.557 53.2654L552.557 47.0313C552.557 45.7588 553.194 45.2499 554.337 45.2499L630.04 45.2499 630.036 45.2521ZM712.223 54.9207 657.008 54.9244 657.008 92.2012 691.107 92.2012C692.25 92.2012 692.887 92.71 692.887 93.9825L692.887 100.088C692.887 101.233 692.25 101.742 691.107 101.742L657.008 101.742 657.008 137.367 712.228 137.367C713.371 137.367 714.008 138.003 714.008 139.147L714.008 145.253C714.008 146.526 713.497 147.034 712.228 147.034L648.612 147.034C647.464 147.034 646.958 146.398 646.958 145.381L646.958 46.9025C646.958 45.7573 647.591 45.2484 648.612 45.2484L712.228 45.2484C713.371 45.2484 714.003 45.8845 714.003 46.9025L714.003 53.264C714.003 54.2816 713.497 54.9179 712.223 54.9179L712.223 54.9207ZM803.701 145.253C804.339 146.271 803.954 147.033 802.811 147.033L796.191 147.033C794.158 147.033 792.757 145.381 791.993 144.236L769.476 112.301 769.092 112.301 739.959 112.301 739.959 145.253C739.959 146.398 739.449 147.033 738.174 147.033L731.559 147.033C730.416 147.033 729.905 146.398 729.905 145.253L729.905 46.9029C729.905 45.7577 730.416 45.2487 731.559 45.2487L769.092 45.2487C792.883 45.2487 803.828 63.697 803.828 78.8376 803.828 91.8146 795.938 106.828 779.273 111.154L803.701 145.253ZM739.959 54.9207 739.964 102.757 768.333 102.757C785.64 102.757 793.905 90.6705 793.905 78.5841 793.905 66.6247 785.509 54.9207 768.333 54.9207L739.959 54.9207 739.959 54.9207ZM935.004 45.2521C935.894 45.2521 936.531 46.0167 936.531 47.0346L936.531 145.258C936.531 146.403 935.894 147.038 934.877 147.038L928.262 147.038C926.987 147.038 926.481 146.403 926.481 145.258L926.481 65.6132 880.168 143.734C879.658 144.625 879.152 145.006 878.257 145.006L877.751 145.006C876.987 145.006 876.35 144.625 875.839 143.734L829.657 65.6132 829.657 145.258C829.657 146.403 829.02 147.038 828.003 147.038L821.388 147.038C820.24 147.038 819.608 146.403 819.608 145.258L819.608 46.9071C819.608 46.0151 820.114 45.2517 821.135 45.2517L827.24 45.2517C828.13 45.2517 828.641 45.6334 829.147 46.398L878.004 128.843 926.987 46.398C927.371 45.6334 927.877 45.2517 929.025 45.2517L935.004 45.2517 935.004 45.2521ZM964.394 45.2521 957.905 45.2521C956.762 45.2521 956.251 45.761 956.251 46.9062L956.251 145.385C956.251 146.402 956.762 147.037 957.905 147.037L964.525 147.037C965.415 147.037 966.048 146.402 966.048 145.385L966.048 46.9062C966.048 45.761 965.415 45.2521 964.394 45.2521ZM1071.39 45.2521C1072.28 45.2521 1072.93 45.7598 1072.93 46.6503L1072.93 145.632C1072.93 146.524 1072.29 147.031 1071.4 147.031L1068.72 147.031C1066.82 147.031 1065.04 145.76 1062.62 143.088L995.696 64.0821 995.696 145.385C995.696 146.403 995.058 147.038 994.042 147.038L987.421 147.038C986.278 147.038 985.768 146.403 985.768 145.385L985.768 46.7794C985.768 45.8888 986.278 45.2526 987.295 45.2526L991.493 45.2526C992.388 45.2526 993.02 45.6343 993.91 46.6521L1063 128.714 1063 46.6521C1063 45.7616 1063.51 45.2526 1064.4 45.2526L1071.39 45.2526 1071.39 45.2521ZM1187.43 145.381C1187.94 146.398 1187.69 147.033 1186.54 147.033L1178.78 147.033C1177.89 147.033 1177.38 146.652 1177 145.888L1168.1 126.932 1106.64 126.932 1097.74 145.888C1097.35 146.652 1096.85 147.033 1096.08 147.033L1088.07 147.033C1087.18 147.033 1086.67 146.398 1087.18 145.381L1134.89 45.7613C1135.39 44.8707 1135.78 44.6162 1136.41 44.6162L1138.2 44.6162C1138.83 44.6162 1139.34 44.8707 1139.72 45.7613L1187.43 145.381ZM1110.97 117.772 1163.77 117.772 1137.3 61.7915 1110.97 117.772ZM1262.24 137.365C1263.26 137.365 1263.77 138.003 1263.77 139.146L1263.77 145.38C1263.77 146.525 1263.26 147.033 1262.24 147.033L1202.57 147.033C1201.42 147.033 1201.04 146.271 1201.04 145.38L1201.04 46.902C1201.04 45.757 1201.55 45.248 1202.7 45.248L1209.44 45.248C1210.46 45.248 1211.09 45.757 1211.09 46.902L1211.09 137.364 1262.24 137.364 1262.24 137.365Z" fill="#FFFFFF" transform="matrix(1.00164 0 0 1 -17 37)"/></g></svg>